# xmcd
#
# Track frame offsets:
#	150
#	18852
#	43232
#	70424
#	93874
#	100270
#	117488
#	141645
#	144079
#	178243
#	202974
#	224523
#	250397
#
# Disc length: 3660 seconds
#
# Revision: 0
# Processed by: cddbd v1.4b41PL1 Copyright (c) Steve Scherf et al.
# Submitted via: audiograbber 1.80
#
DISCID=c70e4a0d
DTITLE=Marc Cohn - Live In Stuttgart 1998 - Disc 1
DYEAR=1900
DGENRE=
TTITLE0=From the station
TTITLE1=Girl of mysterious sorrow
TTITLE2=Ghost train
TTITLE3=The calling
TTITLE4=Intro
TTITLE5=Don't talk to her at night
TTITLE6=Already home
TTITLE7=Intro
TTITLE8=29 Ways
TTITLE9=Healing hands
TTITLE10=Intro
TTITLE11=Walking in Memphis
TTITLE12=Olana
EXTD=
EXTT0=
EXTT1=
EXTT2=
EXTT3=
EXTT4=
EXTT5=
EXTT6=
EXTT7=
EXTT8=
EXTT9=
EXTT10=
EXTT11=
EXTT12=
PLAYORDER=
